<svg width="152" height="42" viewBox="0 0 152 42" fill="none" xmlns="http://www.w3.org/2000/svg">
<path d="M26.9552 20.3732V14.418C26.9552 7.84001 21.6227 2.50752 15.0447 2.50752V2.50752C8.46677 2.50752 3.13428 7.84002 3.13428 14.418V32.5971" stroke="#6C5DD3" stroke-width="5.01493" stroke-linecap="round"/>
<path d="M15.0448 21.9402L15.0448 27.582C15.0448 34.16 20.3773 39.4925 26.9553 39.4925V39.4925C33.5332 39.4925 38.8657 34.16 38.8657 27.582L38.8657 9.40291" stroke="#6C5DD3" stroke-width="5.01493" stroke-linecap="round"/>
<path d="M2.50781 21.3134H39.4929" stroke="#6C5DD3" stroke-width="5.01493"/>
<rect x="2.50746" y="2.50746" width="36.9851" height="36.9851" rx="10.0299" stroke="#6C5DD3" stroke-width="5.01493"/>
<path d="M63.1914 10.1719V31.5H59.1777V10.1719H63.1914ZM69.8125 10.1719V13.3506H52.6299V10.1719H69.8125ZM81.9619 27.7354V15.6504H85.8584V31.5H82.1963L81.9619 27.7354ZM82.46 24.4541L83.6611 24.4248C83.6611 25.4893 83.5439 26.4707 83.3096 27.3691C83.0752 28.2676 82.709 29.0488 82.2109 29.7129C81.7227 30.3672 81.1025 30.8799 80.3506 31.251C79.5986 31.6123 78.71 31.793 77.6846 31.793C76.9033 31.793 76.1904 31.6855 75.5459 31.4707C74.9014 31.2461 74.3447 30.8994 73.876 30.4307C73.417 29.9521 73.0605 29.3418 72.8066 28.5996C72.5527 27.8477 72.4258 26.9443 72.4258 25.8896V15.6504H76.293V25.9189C76.293 26.4463 76.3516 26.8857 76.4688 27.2373C76.5957 27.5889 76.7666 27.877 76.9814 28.1016C77.2061 28.3164 77.4648 28.4727 77.7578 28.5703C78.0605 28.6582 78.3828 28.7021 78.7246 28.7021C79.6621 28.7021 80.3994 28.5166 80.9365 28.1455C81.4834 27.7646 81.874 27.2568 82.1084 26.6221C82.3428 25.9775 82.46 25.2549 82.46 24.4541ZM99.502 27.1641C99.502 26.832 99.4141 26.5342 99.2383 26.2705C99.0625 26.0068 98.7305 25.7676 98.2422 25.5527C97.7637 25.3281 97.0605 25.1182 96.1328 24.9229C95.3125 24.7471 94.5557 24.5273 93.8623 24.2637C93.1689 24 92.5732 23.6826 92.0752 23.3115C91.5771 22.9307 91.1865 22.4863 90.9033 21.9785C90.6299 21.4609 90.4932 20.8652 90.4932 20.1914C90.4932 19.5371 90.6348 18.9219 90.918 18.3457C91.2012 17.7598 91.6113 17.2471 92.1484 16.8076C92.6855 16.3584 93.3398 16.0068 94.1113 15.7529C94.8828 15.4893 95.752 15.3574 96.7188 15.3574C98.0664 15.3574 99.2236 15.5771 100.19 16.0166C101.167 16.4561 101.914 17.0615 102.432 17.833C102.949 18.5947 103.208 19.4541 103.208 20.4111H99.3408C99.3408 19.9912 99.2432 19.6104 99.0479 19.2686C98.8623 18.9268 98.5742 18.6533 98.1836 18.4482C97.793 18.2334 97.2998 18.126 96.7041 18.126C96.167 18.126 95.7129 18.2139 95.3418 18.3896C94.9805 18.5654 94.707 18.7949 94.5215 19.0781C94.3359 19.3613 94.2432 19.6738 94.2432 20.0156C94.2432 20.2695 94.292 20.499 94.3896 20.7041C94.4971 20.8994 94.668 21.0801 94.9023 21.2461C95.1367 21.4121 95.4541 21.5635 95.8545 21.7002C96.2646 21.8369 96.7676 21.9688 97.3633 22.0957C98.5449 22.3301 99.5752 22.6426 100.454 23.0332C101.343 23.4141 102.036 23.9219 102.534 24.5566C103.032 25.1914 103.281 26.002 103.281 26.9883C103.281 27.6914 103.13 28.3359 102.827 28.9219C102.524 29.498 102.085 30.001 101.509 30.4307C100.933 30.8604 100.244 31.1973 99.4434 31.4414C98.6426 31.6758 97.7393 31.793 96.7334 31.793C95.2783 31.793 94.0479 31.5342 93.042 31.0166C92.0361 30.4893 91.2744 29.8252 90.7568 29.0244C90.2393 28.2139 89.9805 27.374 89.9805 26.5049H93.6865C93.7158 27.1201 93.8818 27.6133 94.1846 27.9844C94.4873 28.3555 94.8682 28.624 95.3271 28.79C95.7959 28.9463 96.2891 29.0244 96.8066 29.0244C97.3926 29.0244 97.8857 28.9463 98.2861 28.79C98.6865 28.624 98.9893 28.4043 99.1943 28.1309C99.3994 27.8477 99.502 27.5254 99.502 27.1641ZM114.229 28.7461C114.776 28.7461 115.265 28.6387 115.694 28.4238C116.124 28.209 116.466 27.9062 116.72 27.5156C116.983 27.125 117.125 26.6709 117.145 26.1533H120.792C120.772 27.2275 120.47 28.1895 119.884 29.0391C119.298 29.8887 118.517 30.5625 117.54 31.0605C116.573 31.5488 115.489 31.793 114.288 31.793C113.067 31.793 112.003 31.5879 111.095 31.1777C110.187 30.7676 109.43 30.1963 108.824 29.4639C108.229 28.7314 107.779 27.8818 107.477 26.915C107.184 25.9482 107.037 24.9131 107.037 23.8096V23.3408C107.037 22.2373 107.184 21.2021 107.477 20.2354C107.779 19.2686 108.229 18.4189 108.824 17.6865C109.43 16.9541 110.187 16.3828 111.095 15.9727C112.003 15.5625 113.062 15.3574 114.273 15.3574C115.553 15.3574 116.676 15.6064 117.643 16.1045C118.619 16.6025 119.381 17.3057 119.928 18.2139C120.484 19.1221 120.772 20.1914 120.792 21.4219H117.145C117.125 20.8555 116.998 20.3477 116.764 19.8984C116.529 19.4492 116.197 19.0879 115.768 18.8145C115.338 18.541 114.815 18.4043 114.2 18.4043C113.546 18.4043 112.999 18.541 112.56 18.8145C112.13 19.0879 111.793 19.4639 111.549 19.9424C111.314 20.4111 111.148 20.9385 111.051 21.5244C110.963 22.1006 110.919 22.7061 110.919 23.3408V23.8096C110.919 24.4541 110.963 25.0693 111.051 25.6553C111.148 26.2412 111.314 26.7686 111.549 27.2373C111.793 27.6963 112.13 28.0625 112.56 28.3359C112.999 28.6094 113.556 28.7461 114.229 28.7461ZM124.182 23.7363V23.4287C124.182 22.2666 124.348 21.1973 124.68 20.2207C125.012 19.2344 125.495 18.3799 126.13 17.6572C126.765 16.9346 127.541 16.373 128.459 15.9727C129.377 15.5625 130.422 15.3574 131.594 15.3574C132.785 15.3574 133.84 15.5625 134.758 15.9727C135.686 16.373 136.467 16.9346 137.102 17.6572C137.736 18.3799 138.22 19.2344 138.552 20.2207C138.884 21.1973 139.05 22.2666 139.05 23.4287V23.7363C139.05 24.8887 138.884 25.958 138.552 26.9443C138.22 27.9209 137.736 28.7754 137.102 29.5078C136.467 30.2305 135.69 30.792 134.772 31.1924C133.854 31.5928 132.805 31.793 131.623 31.793C130.451 31.793 129.401 31.5928 128.474 31.1924C127.546 30.792 126.765 30.2305 126.13 29.5078C125.495 28.7754 125.012 27.9209 124.68 26.9443C124.348 25.958 124.182 24.8887 124.182 23.7363ZM128.049 23.4287V23.7363C128.049 24.4297 128.117 25.0791 128.254 25.6846C128.391 26.29 128.601 26.8223 128.884 27.2812C129.167 27.7402 129.533 28.1016 129.982 28.3652C130.441 28.6191 130.988 28.7461 131.623 28.7461C132.248 28.7461 132.785 28.6191 133.234 28.3652C133.684 28.1016 134.05 27.7402 134.333 27.2812C134.626 26.8223 134.841 26.29 134.978 25.6846C135.114 25.0791 135.183 24.4297 135.183 23.7363V23.4287C135.183 22.7451 135.114 22.1055 134.978 21.5098C134.841 20.9043 134.626 20.3721 134.333 19.9131C134.05 19.4443 133.679 19.0781 133.22 18.8145C132.771 18.541 132.229 18.4043 131.594 18.4043C130.969 18.4043 130.432 18.541 129.982 18.8145C129.533 19.0781 129.167 19.4443 128.884 19.9131C128.601 20.3721 128.391 20.9043 128.254 21.5098C128.117 22.1055 128.049 22.7451 128.049 23.4287ZM150.862 15.6504V18.4336H141.78V15.6504H150.862ZM144.212 11.7539H148.094V26.9297C148.094 27.3984 148.157 27.7598 148.284 28.0137C148.411 28.2676 148.602 28.4385 148.855 28.5264C149.109 28.6143 149.412 28.6582 149.764 28.6582C150.018 28.6582 150.252 28.6436 150.467 28.6143C150.682 28.585 150.862 28.5557 151.009 28.5264L151.023 31.4268C150.701 31.5342 150.335 31.6221 149.925 31.6904C149.524 31.7588 149.07 31.793 148.562 31.793C147.693 31.793 146.932 31.6465 146.277 31.3535C145.623 31.0508 145.115 30.5674 144.754 29.9033C144.393 29.2295 144.212 28.3408 144.212 27.2373V11.7539Z" fill="black"/>
</svg>
